<svg xmlns="http://www.w3.org/2000/svg" width="1600" height="900" viewBox="0 0 1600 900">
<defs><linearGradient id="bg" x1="0" x2="1" y1="0" y2="1"><stop stop-color="#061426"/><stop offset=".55" stop-color="#0b4b63"/><stop offset="1" stop-color="#e0f7fa"/></linearGradient><filter id="shadow" x="-20%" y="-20%" width="140%" height="140%"><feDropShadow dx="0" dy="18" stdDeviation="22" flood-color="#00172a" flood-opacity=".35"/></filter></defs>
<rect width="1600" height="900" fill="url(#bg)"/><circle cx="1290" cy="120" r="220" fill="#22d3ee" opacity=".18"/><circle cx="210" cy="780" r="270" fill="#14b8a6" opacity=".18"/>
<g opacity=".25" stroke="#b6f3ff" stroke-width="2"><path d="M120 180h1360M120 300h1360M120 420h1360M120 540h1360"/><path d="M220 120v660M420 120v660M620 120v660M820 120v660M1020 120v660M1220 120v660M1420 120v660"/></g>
<g filter="url(#shadow)"><rect x="180" y="185" width="520" height="500" rx="34" fill="#ffffff" opacity=".98"/><rect x="220" y="235" width="440" height="46" rx="12" fill="#e0f2fe"/><rect x="220" y="318" width="440" height="38" rx="10" fill="#eef6ff"/><rect x="220" y="380" width="320" height="38" rx="10" fill="#eef6ff"/><rect x="220" y="470" width="190" height="140" rx="20" fill="#0891b2"/><path d="M255 560c38-92 72-54 105-118" stroke="#fff" stroke-width="12" fill="none" stroke-linecap="round"/><rect x="440" y="470" width="180" height="24" rx="8" fill="#dbeafe"/><rect x="440" y="515" width="140" height="24" rx="8" fill="#dbeafe"/><rect x="440" y="560" width="170" height="24" rx="8" fill="#dbeafe"/></g>
<g filter="url(#shadow)"><rect x="760" y="220" width="640" height="390" rx="36" fill="#071426"/><rect x="810" y="270" width="540" height="56" rx="14" fill="#123556"/><circle cx="860" cy="410" r="78" fill="#0ea5e9"/><path d="M860 332a78 78 0 0 1 70 113" fill="none" stroke="#67e8f9" stroke-width="28"/><rect x="980" y="372" width="290" height="30" rx="10" fill="#1e496d"/><rect x="980" y="426" width="230" height="30" rx="10" fill="#1e496d"/><polyline points="960,540 1025,490 1085,510 1145,440 1215,462 1300,375" fill="none" stroke="#22c55e" stroke-width="14" stroke-linecap="round" stroke-linejoin="round"/></g>
<g fill="#fff"><circle cx="1140" cy="690" r="92" opacity=".95"/><path d="M1140 642v96M1092 690h96" stroke="#0891b2" stroke-width="22" stroke-linecap="round"/><rect x="930" y="705" width="420" height="64" rx="32" fill="#fff" opacity=".92"/><text x="960" y="748" font-family="Arial" font-size="34" font-weight="700" fill="#075985">missed enquiry → booked visit</text></g>
<text x="180" y="790" font-family="Arial" font-size="46" font-weight="800" fill="#ffffff">Healthcare GrowthOS</text><text x="180" y="842" font-family="Arial" font-size="28" fill="#cffafe">Make calls, WhatsApp, booking and follow-up easier to manage.</text>
</svg>