<svg xmlns="http://www.w3.org/2000/svg" width="1600" height="900" viewBox="0 0 1600 900"><defs><linearGradient id="bg" x1="0" x2="1" y1="0" y2="1"><stop stop-color="#070b22"/><stop offset=".55" stop-color="#312e81"/><stop offset="1" stop-color="#0891b2"/></linearGradient><filter id="shadow" x="-20%" y="-20%" width="140%" height="140%"><feDropShadow dx="0" dy="18" stdDeviation="22" flood-color="#00172a" flood-opacity=".35"/></filter></defs><rect width="1600" height="900" fill="url(#bg)"/><circle cx="1280" cy="150" r="260" fill="#a78bfa" opacity=".2"/><circle cx="260" cy="760" r="300" fill="#22d3ee" opacity=".18"/><g opacity=".25" stroke="#e0e7ff" stroke-width="2"><path d="M110 170h1380M110 310h1380M110 450h1380M110 590h1380"/><path d="M260 120v620M520 120v620M780 120v620M1040 120v620M1300 120v620"/></g><g filter="url(#shadow)"><rect x="220" y="220" width="590" height="390" rx="34" fill="#071426"/><rect x="270" y="275" width="490" height="48" rx="14" fill="#1e1b4b"/><rect x="270" y="375" width="120" height="180" rx="16" fill="#38bdf8"/><rect x="430" y="430" width="120" height="125" rx="16" fill="#a78bfa"/><rect x="590" y="335" width="120" height="220" rx="16" fill="#22c55e"/><path d="M280 615h430" stroke="#64748b" stroke-width="10" stroke-linecap="round"/></g><g filter="url(#shadow)"><rect x="890" y="185" width="480" height="500" rx="38" fill="#fff"/><rect x="940" y="250" width="380" height="44" rx="12" fill="#ede9fe"/><rect x="940" y="340" width="360" height="34" rx="10" fill="#eef2ff"/><rect x="940" y="395" width="300" height="34" rx="10" fill="#eef2ff"/><rect x="940" y="500" width="160" height="54" rx="16" fill="#7c3aed"/><rect x="1130" y="500" width="160" height="54" rx="16" fill="#0891b2"/><path d="M940 610c86-70 155-40 230-98 55-42 88-38 140-22" fill="none" stroke="#22c55e" stroke-width="14" stroke-linecap="round"/></g><g fill="#fff"><rect x="620" y="690" width="520" height="70" rx="35" opacity=".94"/><text x="660" y="737" font-family="Arial" font-size="34" font-weight="700" fill="#312e81">high bill → clear owner view</text></g><text x="180" y="790" font-family="Arial" font-size="46" font-weight="800" fill="#ffffff">Cloud Trust &amp; Cost Review</text><text x="180" y="842" font-family="Arial" font-size="28" fill="#e0f2fe">Help owners see what costs money, what is pending, and who owns it.</text></svg>