<svg xmlns="http://www.w3.org/2000/svg" width="900" height="560" viewBox="0 0 900 560">
<defs><linearGradient id="g" x1="0" x2="1" y1="0" y2="1"><stop offset="0" stop-color="#f2edff"/><stop offset="1" stop-color="#ffffff"/></linearGradient><filter id="s"><feDropShadow dx="0" dy="18" stdDeviation="18" flood-opacity=".18"/></filter></defs>
<rect width="900" height="560" fill="url(#g)"/><circle cx="760" cy="72" r="150" fill="#704dd6" opacity=".12"/><circle cx="120" cy="500" r="180" fill="#704dd6" opacity=".10"/>
<rect x="58" y="64" width="784" height="432" rx="42" fill="#fff" filter="url(#s)"/>
<rect x="92" y="98" width="350" height="245" rx="28" fill="#704dd6" opacity=".13"/><rect x="120" y="126" width="292" height="36" rx="18" fill="#704dd6" opacity=".22"/><rect x="120" y="186" width="128" height="128" rx="34" fill="#fff" stroke="#704dd6" stroke-width="5"/><text x="184" y="269" text-anchor="middle" font-size="62">🏋️</text><rect x="270" y="192" width="118" height="20" rx="10" fill="#704dd6" opacity=".55"/><rect x="270" y="228" width="90" height="18" rx="9" fill="#704dd6" opacity=".35"/><rect x="270" y="262" width="124" height="18" rx="9" fill="#704dd6" opacity=".28"/>
<rect x="488" y="110" width="292" height="70" rx="22" fill="#06111f"/><text x="516" y="153" font-family="Arial" font-size="24" font-weight="700" fill="#fff">Gym reception</text>
<rect x="488" y="214" width="292" height="54" rx="18" fill="#704dd6" opacity=".12"/><text x="514" y="248" font-family="Arial" font-size="19" font-weight="700" fill="#102033">Trial booked</text>
<rect x="488" y="292" width="292" height="54" rx="18" fill="#704dd6" opacity=".18"/><text x="514" y="326" font-family="Arial" font-size="19" font-weight="700" fill="#102033">Renewal due</text>
<rect x="488" y="370" width="208" height="54" rx="18" fill="#25e6c8"/><text x="514" y="405" font-family="Arial" font-size="19" font-weight="800" fill="#06111f">Follow-up fixed</text>
</svg>