<svg xmlns="http://www.w3.org/2000/svg" width="1000" height="680" viewBox="0 0 1000 680">
<defs><linearGradient id="bg" x1="0" x2="1" y1="0" y2="1"><stop offset="0" stop-color="#45162a"/><stop offset="1" stop-color="#0d5264"/></linearGradient><filter id="shadow"><feDropShadow dx="0" dy="24" stdDeviation="24" flood-opacity=".24"/></filter></defs>
<rect width="1000" height="680" rx="52" fill="url(#bg)"/>
<circle cx="860" cy="80" r="210" fill="#ff7aa2" opacity=".18"/><circle cx="120" cy="650" r="250" fill="#ff7aa2" opacity=".10"/>
<rect x="62" y="62" width="876" height="556" rx="44" fill="rgba(255,255,255,.08)" stroke="rgba(255,255,255,.18)"/>
<rect x="96" y="100" width="360" height="468" rx="36" fill="#fff" filter="url(#shadow)"/>
<rect x="126" y="132" width="300" height="38" rx="19" fill="#ff7aa2" opacity=".22"/>
<text x="276" y="245" text-anchor="middle" font-size="84">📅</text>
<text x="126" y="300" font-family="Arial, sans-serif" font-size="28" font-weight="800" fill="#071827">Product screen</text><rect x="92" y="330" width="260" height="14" rx="7" fill="#ff7aa2" opacity="0.7"/><rect x="92" y="364" width="222" height="14" rx="7" fill="#ff7aa2" opacity="0.59"/><rect x="92" y="398" width="184" height="14" rx="7" fill="#ff7aa2" opacity="0.48"/><rect x="92" y="432" width="146" height="14" rx="7" fill="#ff7aa2" opacity="0.36999999999999994"/>
<rect x="532" y="118" width="330" height="82" rx="26" fill="#ff7aa2"/>
<text x="558" y="168" font-family="Arial, sans-serif" font-size="28" font-weight="900" fill="#06111f">AICS BookingDesk</text>
<rect x="532" y="238" width="350" height="66" rx="22" fill="rgba(255,255,255,.13)" stroke="rgba(255,255,255,.18)"/>
<text x="558" y="279" font-family="Arial, sans-serif" font-size="22" font-weight="700" fill="#fff">Appointments and visit reminders</text>
<rect x="532" y="344" width="132" height="132" rx="30" fill="rgba(255,255,255,.12)"/><rect x="694" y="344" width="132" height="132" rx="30" fill="rgba(255,255,255,.12)"/>
<text x="598" y="414" text-anchor="middle" font-family="Arial" font-size="34" font-weight="900" fill="#fff">24x7</text><text x="760" y="414" text-anchor="middle" font-family="Arial" font-size="34" font-weight="900" fill="#fff">ROI</text>
<rect x="532" y="520" width="270" height="46" rx="23" fill="#fff"/><text x="558" y="550" font-family="Arial" font-size="19" font-weight="800" fill="#06111f">Business-ready package</text>
</svg>