<svg xmlns="http://www.w3.org/2000/svg" viewBox="0 0 640 420" role="img" aria-labelledby="title desc">
  <title id="title">AI Creative Studio visual</title>
  <desc id="desc">A stylised campaign creative board with image, copy and social media elements.</desc>
  <defs>
    <linearGradient id="bg" x1="0" y1="0" x2="1" y2="1"><stop offset="0" stop-color="#1d4ed8"/><stop offset=".52" stop-color="#7c3aed"/><stop offset="1" stop-color="#ec4899"/></linearGradient>
    <linearGradient id="card" x1="0" y1="0" x2="1" y2="1"><stop offset="0" stop-color="#ffffff"/><stop offset="1" stop-color="#eef2ff"/></linearGradient>
    <filter id="shadow" x="-20%" y="-20%" width="140%" height="140%"><feDropShadow dx="0" dy="18" stdDeviation="18" flood-color="#0f172a" flood-opacity=".22"/></filter>
  </defs>
  <rect width="640" height="420" rx="38" fill="#0f172a"/>
  <circle cx="104" cy="76" r="112" fill="#38bdf8" opacity=".18"/>
  <circle cx="540" cy="330" r="142" fill="#f472b6" opacity=".2"/>
  <rect x="58" y="54" width="524" height="312" rx="30" fill="url(#bg)" filter="url(#shadow)"/>
  <rect x="94" y="88" width="452" height="244" rx="24" fill="url(#card)" opacity=".96"/>
  <rect x="126" y="122" width="170" height="136" rx="20" fill="#dbeafe"/>
  <path d="M144 232l42-48 34 34 28-32 32 46z" fill="#2563eb" opacity=".9"/>
  <circle cx="256" cy="150" r="20" fill="#f59e0b"/>
  <rect x="326" y="124" width="148" height="20" rx="10" fill="#111827" opacity=".88"/>
  <rect x="326" y="160" width="188" height="14" rx="7" fill="#64748b" opacity=".55"/>
  <rect x="326" y="184" width="156" height="14" rx="7" fill="#64748b" opacity=".45"/>
  <rect x="326" y="226" width="108" height="42" rx="21" fill="#16a34a"/>
  <text x="380" y="253" text-anchor="middle" font-family="Arial, sans-serif" font-size="18" font-weight="700" fill="#fff">AD READY</text>
  <rect x="126" y="286" width="72" height="14" rx="7" fill="#7c3aed" opacity=".82"/>
  <rect x="214" y="286" width="92" height="14" rx="7" fill="#ec4899" opacity=".72"/>
  <rect x="322" y="286" width="128" height="14" rx="7" fill="#06b6d4" opacity=".72"/>
  <text x="506" y="118" font-family="Arial, sans-serif" font-size="32" font-weight="800" fill="#7c3aed">AI</text>
</svg>
